<svg xmlns="http://www.w3.org/2000/svg" width="24" height="24" viewBox="0 0 24 24"><path d="M19.5 10c-2.483 0-4.5 2.015-4.5 4.5s2.017 4.5 4.5 4.5 4.5-2.015 4.5-4.5-2.017-4.5-4.5-4.5zm2.5 5h-2v2h-1v-2h-2v-1h2v-2h1v2h2v1zm-6.527 4.593C14.365 20.679 13.198 21.812 12 23 5.57 16.619 0 11.853 0 7.192 0 3.187 3.098 1 6.281 1 8.478 1 10.715 2.042 12 4.248c1.279-2.195 3.521-3.238 5.726-3.238C20.903 1.01 24 3.181 24 7.192c0 .746-.156 1.496-.423 2.253a6.465 6.465 0 00-1.769-1.014c.122-.425.192-.839.192-1.239 0-2.873-2.216-4.182-4.274-4.182-3.257 0-4.976 3.475-5.726 5.021-.747-1.54-2.484-5.03-5.72-5.031C3.965 2.999 2 4.516 2 7.192c0 3.442 4.742 7.85 10 13l2.109-2.064a6.57 6.57 0 001.364 1.465z"/></svg>